<svg xmlns="http://www.w3.org/2000/svg" viewBox="0 0 100 100" preserveAspectRatio="xMidYMid" width="210" height="210" style="shape-rendering: auto; display: block; background: transparent;" xmlns:xlink="http://www.w3.org/1999/xlink"><g><g transform="rotate(0 50 50)">
  <rect fill="#000000" height="12" width="7" ry="2.04" rx="2.04" y="25" x="46.5">
    <animate repeatCount="indefinite" begin="-1.1986301369863015s" dur="1.36986301369863s" keyTimes="0;1" values="1;0" attributeName="opacity"></animate>
  </rect>
</g><g transform="rotate(45 50 50)">
  <rect fill="#000000" height="12" width="7" ry="2.04" rx="2.04" y="25" x="46.5">
    <animate repeatCount="indefinite" begin="-1.0273972602739727s" dur="1.36986301369863s" keyTimes="0;1" values="1;0" attributeName="opacity"></animate>
  </rect>
</g><g transform="rotate(90 50 50)">
  <rect fill="#000000" height="12" width="7" ry="2.04" rx="2.04" y="25" x="46.5">
    <animate repeatCount="indefinite" begin="-0.8561643835616438s" dur="1.36986301369863s" keyTimes="0;1" values="1;0" attributeName="opacity"></animate>
  </rect>
</g><g transform="rotate(135 50 50)">
  <rect fill="#000000" height="12" width="7" ry="2.04" rx="2.04" y="25" x="46.5">
    <animate repeatCount="indefinite" begin="-0.684931506849315s" dur="1.36986301369863s" keyTimes="0;1" values="1;0" attributeName="opacity"></animate>
  </rect>
</g><g transform="rotate(180 50 50)">
  <rect fill="#000000" height="12" width="7" ry="2.04" rx="2.04" y="25" x="46.5">
    <animate repeatCount="indefinite" begin="-0.5136986301369864s" dur="1.36986301369863s" keyTimes="0;1" values="1;0" attributeName="opacity"></animate>
  </rect>
</g><g transform="rotate(225 50 50)">
  <rect fill="#000000" height="12" width="7" ry="2.04" rx="2.04" y="25" x="46.5">
    <animate repeatCount="indefinite" begin="-0.3424657534246575s" dur="1.36986301369863s" keyTimes="0;1" values="1;0" attributeName="opacity"></animate>
  </rect>
</g><g transform="rotate(270 50 50)">
  <rect fill="#000000" height="12" width="7" ry="2.04" rx="2.04" y="25" x="46.5">
    <animate repeatCount="indefinite" begin="-0.17123287671232876s" dur="1.36986301369863s" keyTimes="0;1" values="1;0" attributeName="opacity"></animate>
  </rect>
</g><g transform="rotate(315 50 50)">
  <rect fill="#000000" height="12" width="7" ry="2.04" rx="2.04" y="25" x="46.5">
    <animate repeatCount="indefinite" begin="0s" dur="1.36986301369863s" keyTimes="0;1" values="1;0" attributeName="opacity"></animate>
  </rect>
</g><g></g></g><!-- [ldio] generated by https://loading.io --></svg>